<svg id="Livello_1" data-name="Livello 1" xmlns="http://www.w3.org/2000/svg" viewBox="0 0 41 43"><defs><style>.cls-1{fill:#fff;}</style></defs><title>relais-chateaux-il-borro-toscana-white</title><path class="cls-1" d="M17.41,18.28c-2,.58-4.37,1.56-5.05,3.74a2.92,2.92,0,0,0,1,3.07,3.8,3.8,0,0,0,3.77.56,2.75,2.75,0,0,0,1.57-1.81,2.44,2.44,0,0,1-2.68,0,2.33,2.33,0,0,1-.93-2c.12-1.5,1.71-2.62,3-3a6.87,6.87,0,0,1,1.43-.25,6.05,6.05,0,0,1-2.93,3.73,4.29,4.29,0,0,0,2.75-.1,10.34,10.34,0,0,0,1.11,3.29,10.34,10.34,0,0,0,1.11-3.29,4.29,4.29,0,0,0,2.75.1,6.05,6.05,0,0,1-2.93-3.73,6.87,6.87,0,0,1,1.43.25c1.31.38,2.89,1.5,3,3a2.35,2.35,0,0,1-.93,2,2.44,2.44,0,0,1-2.68,0,2.73,2.73,0,0,0,1.57,1.81,3.8,3.8,0,0,0,3.77-.56,2.92,2.92,0,0,0,1-3.07c-.68-2.18-3.09-3.16-5.05-3.74h0c3.06-.28,6-1.09,8.19-3.29,1.66-1.76,2.74-4.26,1.76-6.69a4.51,4.51,0,0,0-4-2.85c-4.07-.22-5.93,3.81-6.15,5.08,0,0,2.17-2.65,5.21-1.95a2.86,2.86,0,0,1,2.1,2,4.85,4.85,0,0,1-1.61,4.71,11.85,11.85,0,0,1-6.78,2.43,5.69,5.69,0,0,1,1.22-3.52,2.52,2.52,0,0,1,2.24-1,1.23,1.23,0,0,1,.95,1.32,2,2,0,0,1-.75,1.2,3.81,3.81,0,0,0,3.12-2.56,2.47,2.47,0,0,0-3.18-2.92c-3.22.75-4.19,4.46-4.37,7.49h-.32c-.72-3.48,1-6.31,1.75-9.39h0c.62-2.68-.77-5.58-2.5-7.73C18.77,2.79,17.38,5.69,18,8.37c.72,3.08,2.47,5.91,1.75,9.39h-.32c-.18-3-1.15-6.74-4.37-7.49a2.47,2.47,0,0,0-3.18,2.92A3.81,3.81,0,0,0,15,15.74a2,2,0,0,1-.75-1.2,1.23,1.23,0,0,1,.95-1.32,2.51,2.51,0,0,1,2.24,1,5.69,5.69,0,0,1,1.22,3.52,11.85,11.85,0,0,1-6.78-2.43,4.85,4.85,0,0,1-1.61-4.71,2.86,2.86,0,0,1,2.1-2c3-.7,5.21,1.95,5.21,1.95-.22-1.27-2.09-5.3-6.15-5.08a4.51,4.51,0,0,0-4,2.85c-1,2.43.1,4.93,1.76,6.69,2.23,2.2,5.13,3,8.19,3.29"/><path class="cls-1" d="M35.84,34.16l.66,1H35.12l-.2-.29a3,3,0,0,1-1.44.38,1.67,1.67,0,0,1-1.83-1.62,1.85,1.85,0,0,1,1.21-1.7,1.72,1.72,0,0,1-.47-1.17,1.45,1.45,0,0,1,2.89,0,1.77,1.77,0,0,1-.85,1.38l.86,1.26a10,10,0,0,0,.73-.76l.65.72a8.19,8.19,0,0,1-.83.85M34.39,34l-.94-1.39a.89.89,0,0,0-.61.88c0,.44.33.71.9.71a1.35,1.35,0,0,0,.65-.2m-.93-3.35a1.4,1.4,0,0,0,.38.7,1,1,0,0,0,.48-.71.43.43,0,1,0-.86,0"/><path class="cls-1" d="M7.43,35.11,5.84,32.42v2.69H4.6V29.42h2a1.76,1.76,0,0,1,2,1.7,1.61,1.61,0,0,1-1.28,1.61l1.52,2.38Zm-.79-4.64h-.8v1.38h.8a.67.67,0,0,0,.71-.73.65.65,0,0,0-.71-.65"/><polygon class="cls-1" points="13.8 35.11 13.8 29.42 15.05 29.42 15.05 34.06 17.07 34.06 17.07 35.11 13.8 35.11"/><path class="cls-1" d="M21.46,35.11,21,33.68H19.3l-.45,1.43H17.54l2-5.69h1.2l2.06,5.69Zm-1.17-3.87c-.06-.2-.12-.46-.12-.46s-.06.25-.12.46l-.43,1.39h1.1Z"/><rect class="cls-1" x="23.54" y="29.42" width="1.25" height="5.69"/><path class="cls-1" d="M27.43,35.2a3,3,0,0,1-1.91-.7l.64-.88a2.18,2.18,0,0,0,1.29.49c.57,0,.72-.19.72-.53,0-.57-1-.77-1.51-1a1.61,1.61,0,0,1-1-1.58c0-1.17,1-1.64,2-1.64a2.89,2.89,0,0,1,1.64.49l-.56.93a1.9,1.9,0,0,0-1.08-.33c-.58,0-.78.33-.78.55,0,.52.72.67,1.38,1a1.61,1.61,0,0,1,1.15,1.57c0,1.07-.76,1.7-2,1.7"/><path class="cls-1" d="M3.41,42.36a2.76,2.76,0,0,1-2.91-3,2.83,2.83,0,0,1,2.88-2.9,2.62,2.62,0,0,1,2.05.84l-.7.82a1.83,1.83,0,0,0-1.35-.57,1.63,1.63,0,0,0-1.59,1.81c0,1.17.57,1.88,1.62,1.88a1.88,1.88,0,0,0,1.43-.64l.72.81a2.71,2.71,0,0,1-2.15.92"/><path class="cls-1" d="M15.28,42.27l-.44-1.43H13.11l-.44,1.43H11.35l2-5.69h1.21l2.06,5.69ZM14.11,38.4,14,37.94s-.05.25-.11.46l-.43,1.38h1.09Z"/><polygon class="cls-1" points="16.5 36.58 16.5 37.63 17.63 37.63 17.63 42.27 18.87 42.27 18.87 37.63 19.97 37.63 19.97 36.58 16.5 36.58"/><path class="cls-1" d="M28.59,42.27l-.44-1.43H26.42L26,42.27H24.66l2-5.69h1.2L30,42.27ZM27.42,38.4c-.06-.21-.12-.46-.12-.46s-.06.25-.12.46l-.43,1.38h1.09Z"/><path class="cls-1" d="M32.59,42.36A2.29,2.29,0,0,1,30.16,40V36.58h1.25V40a1.21,1.21,0,0,0,1.18,1.33A1.26,1.26,0,0,0,33.84,40V36.58h1.24V40a2.34,2.34,0,0,1-2.49,2.4"/><polygon class="cls-1" points="38.77 36.58 37.95 38.07 37.09 36.58 35.71 36.58 37.25 39.17 35.43 42.27 36.81 42.27 37.95 40.26 39.1 42.27 40.5 42.27 38.64 39.17 40.16 36.58 38.77 36.58"/><polygon class="cls-1" points="20.61 36.58 20.61 42.27 24.04 42.27 24.04 41.22 21.86 41.22 21.86 39.95 23.92 39.95 23.92 38.9 21.86 38.9 21.86 37.63 23.92 37.63 23.92 36.58 20.61 36.58"/><polygon class="cls-1" points="10.7 34.06 10.7 32.79 12.76 32.79 12.76 31.74 10.7 31.74 10.7 30.48 12.76 30.48 12.76 29.42 9.45 29.42 9.45 35.11 12.88 35.11 12.88 34.06 10.7 34.06"/><polygon class="cls-1" points="9.46 36.58 9.46 38.9 7.48 38.9 7.48 36.58 6.23 36.58 6.23 42.27 7.48 42.27 7.48 40 7.48 39.95 9.46 39.95 9.46 40 9.46 42.27 10.7 42.27 10.7 36.58 9.46 36.58"/></svg>